# xmcd
#
# Track frame offsets:
#	150
#	20940
#	36747
#	59590
#	83142
#	98900
#	117890
#	132920
#	159737
#	183887
#
# Disc length: 2650 seconds
#
# Revision: 1
# Processed by: cddbd v1.5.1PL0 Copyright (c) Steve Scherf et al.
# Submitted via: audiograbber 1.83.01
#
DISCID=8d0a580a
DTITLE=Mark Arshak - Natural Born Blueser
DYEAR=1997
DGENRE=Blues
TTITLE0=Leta Jane
TTITLE1=Help Me
TTITLE2=Natural Born Blueser
TTITLE3=River Boat Blues
TTITLE4=Hug You, Squeeze You
TTITLE5=Back Door Man
TTITLE6=Sugar Sadie
TTITLE7=Rain On My Window
TTITLE8=Blessed With A Curse
TTITLE9=Woodtick
EXTD=
EXTT0=
EXTT1=
EXTT2=
EXTT3=
EXTT4=
EXTT5=
EXTT6=
EXTT7=
EXTT8=
EXTT9=
PLAYORDER=
